HIERARCHY
ROOT Hips
{
	OFFSET -14.64140 90.27770 -84.91600
	CHANNELS 6 Xposition Yposition Zposition Zrotation Xrotation Yrotation
	JOINT Spine
	{
		OFFSET 0.00000 13.20850 -1.60436
		CHANNELS 3 Zrotation Xrotation Yrotation
		JOINT Spine1
		{
			OFFSET 0.00000 8.61716 0.00000
			CHANNELS 3 Zrotation Xrotation Yrotation
			JOINT Spine2
			{
				OFFSET 0.00000 8.61717 0.00000
				CHANNELS 3 Zrotation Xrotation Yrotation
				JOINT Spine3
				{
					OFFSET 0.00000 8.61717 0.00000
					CHANNELS 3 Zrotation Xrotation Yrotation
					JOINT Neck
					{
						OFFSET 0.00000 11.07920 1.10792
						CHANNELS 3 Zrotation Xrotation Yrotation
						JOINT Neck1
						{
							OFFSET 0.00000 7.08032 0.00000
							CHANNELS 3 Zrotation Xrotation Yrotation
							JOINT Head
							{
								OFFSET 0.00000 7.08031 0.00000
								CHANNELS 3 Zrotation Xrotation Yrotation
								End site
								{
									OFFSET 0.00000 0.00000 0.00000
								}
							}
						}
					}
					JOINT RightShoulder
					{
						OFFSET -0.01000 7.91373 5.19711
						CHANNELS 3 Zrotation Xrotation Yrotation
						JOINT RightArm
						{
							OFFSET -18.41580 0.00000 0.00000
							CHANNELS 3 Zrotation Xrotation Yrotation
							JOINT RightForeArm
							{
								OFFSET -29.11090 0.00000 0.00000
								CHANNELS 3 Zrotation Xrotation Yrotation
								JOINT RightHand
								{
									OFFSET -24.65040 0.00000 0.00000
									CHANNELS 3 Zrotation Xrotation Yrotation
									JOINT RightHandThumb1
									{
										OFFSET -5.35114 -0.85590 3.97906
										CHANNELS 3 Zrotation Xrotation Yrotation
										JOINT RightHandThumb2
										{
											OFFSET -4.52789 0.00000 0.00000
											CHANNELS 3 Zrotation Xrotation Yrotation
											JOINT RightHandThumb3
											{
												OFFSET -2.46976 0.00000 0.00000
												CHANNELS 3 Zrotation Xrotation Yrotation
												End site
												{
													OFFSET 0.00000 0.00000 0.00000
												}
											}
										}
									}
									JOINT RightHandIndex1
									{
										OFFSET -14.26970 0.00000 2.88139
										CHANNELS 3 Zrotation Xrotation Yrotation
										JOINT RightHandIndex2
										{
											OFFSET -5.48836 0.00000 0.00000
											CHANNELS 3 Zrotation Xrotation Yrotation
											JOINT RightHandIndex3
											{
												OFFSET -3.01859 0.00000 0.00000
												CHANNELS 3 Zrotation Xrotation Yrotation
												End site
												{
													OFFSET 0.00000 0.00000 0.00000
												}
											}
										}
									}
									JOINT RightHandMiddle1
									{
										OFFSET -14.26970 0.00000 -0.09147
										CHANNELS 3 Zrotation Xrotation Yrotation
										JOINT RightHandMiddle2
										{
											OFFSET -6.17441 0.00000 0.00000
											CHANNELS 3 Zrotation Xrotation Yrotation
											JOINT RightHandMiddle3
											{
												OFFSET -3.56743 0.00000 0.00000
												CHANNELS 3 Zrotation Xrotation Yrotation
												End site
												{
													OFFSET 0.00000 0.00000 0.00000
												}
											}
										}
									}
									JOINT RightHandRing1
									{
										OFFSET -12.69180 0.00000 -3.06433
										CHANNELS 3 Zrotation Xrotation Yrotation
										JOINT RightHandRing2
										{
											OFFSET -5.62556 0.00000 0.00000
											CHANNELS 3 Zrotation Xrotation Yrotation
											JOINT RightHandRing3
											{
												OFFSET -3.56744 0.00000 0.00000
												CHANNELS 3 Zrotation Xrotation Yrotation
												End site
												{
													OFFSET 0.00000 0.00000 0.00000
												}
											}
										}
									}
									JOINT RightHandPinky1
									{
										OFFSET -11.11390 0.00000 -6.03719
										CHANNELS 3 Zrotation Xrotation Yrotation
										JOINT RightHandPinky2
										{
											OFFSET -4.52789 0.00000 0.00000
											CHANNELS 3 Zrotation Xrotation Yrotation
											JOINT RightHandPinky3
											{
												OFFSET -2.46976 0.00000 0.00000
												CHANNELS 3 Zrotation Xrotation Yrotation
												End site
												{
													OFFSET 0.00000 0.00000 0.00000
												}
											}
										}
									}
								}
							}
						}
					}
					JOINT LeftShoulder
					{
						OFFSET 0.01000 7.91373 5.19711
						CHANNELS 3 Zrotation Xrotation Yrotation
						JOINT LeftArm
						{
							OFFSET 18.41580 0.00000 0.00000
							CHANNELS 3 Zrotation Xrotation Yrotation
							JOINT LeftForeArm
							{
								OFFSET 29.11090 0.00000 0.00000
								CHANNELS 3 Zrotation Xrotation Yrotation
								JOINT LeftHand
								{
									OFFSET 24.65040 0.00000 0.00000
									CHANNELS 3 Zrotation Xrotation Yrotation
									JOINT LeftHandThumb1
									{
										OFFSET 5.35114 -0.85590 3.97906
										CHANNELS 3 Zrotation Xrotation Yrotation
										JOINT LeftHandThumb2
										{
											OFFSET 4.52789 0.00000 0.00000
											CHANNELS 3 Zrotation Xrotation Yrotation
											JOINT LeftHandThumb3
											{
												OFFSET 2.46977 0.00000 0.00000
												CHANNELS 3 Zrotation Xrotation Yrotation
												End site
												{
													OFFSET 0.00000 0.00000 0.00000
												}
											}
										}
									}
									JOINT LeftHandIndex1
									{
										OFFSET 14.26970 0.00000 2.88139
										CHANNELS 3 Zrotation Xrotation Yrotation
										JOINT LeftHandIndex2
										{
											OFFSET 5.48836 0.00000 0.00000
											CHANNELS 3 Zrotation Xrotation Yrotation
											JOINT LeftHandIndex3
											{
												OFFSET 3.01859 0.00000 0.00000
												CHANNELS 3 Zrotation Xrotation Yrotation
												End site
												{
													OFFSET 0.00000 0.00000 0.00000
												}
											}
										}
									}
									JOINT LeftHandMiddle1
									{
										OFFSET 14.26970 0.00000 -0.09147
										CHANNELS 3 Zrotation Xrotation Yrotation
										JOINT LeftHandMiddle2
										{
											OFFSET 6.17440 0.00000 0.00000
											CHANNELS 3 Zrotation Xrotation Yrotation
											JOINT LeftHandMiddle3
											{
												OFFSET 3.56744 0.00000 0.00000
												CHANNELS 3 Zrotation Xrotation Yrotation
												End site
												{
													OFFSET 0.00000 0.00000 0.00000
												}
											}
										}
									}
									JOINT LeftHandRing1
									{
										OFFSET 12.69180 0.00000 -3.06433
										CHANNELS 3 Zrotation Xrotation Yrotation
										JOINT LeftHandRing2
										{
											OFFSET 5.62556 0.00000 0.00000
											CHANNELS 3 Zrotation Xrotation Yrotation
											JOINT LeftHandRing3
											{
												OFFSET 3.56744 0.00000 0.00000
												CHANNELS 3 Zrotation Xrotation Yrotation
												End site
												{
													OFFSET 0.00000 0.00000 0.00000
												}
											}
										}
									}
									JOINT LeftHandPinky1
									{
										OFFSET 11.11390 0.00000 -6.03719
										CHANNELS 3 Zrotation Xrotation Yrotation
										JOINT LeftHandPinky2
										{
											OFFSET 4.52789 0.00000 0.00000
											CHANNELS 3 Zrotation Xrotation Yrotation
											JOINT LeftHandPinky3
											{
												OFFSET 2.46976 0.00000 0.00000
												CHANNELS 3 Zrotation Xrotation Yrotation
												End site
												{
													OFFSET 0.00000 0.00000 0.00000
												}
											}
										}
									}
								}
							}
						}
					}
					JOINT pCube4
					{
						OFFSET 0.00000 10.91090 1.10792
						CHANNELS 3 Zrotation Xrotation Yrotation
						End site
						{
							OFFSET 0.00000 0.00000 0.00000
						}
					}
				}
			}
		}
	}
	JOINT RightUpLeg
	{
		OFFSET -9.98441 0.00000 0.00000
		CHANNELS 3 Zrotation Xrotation Yrotation
		JOINT RightLeg
		{
			OFFSET 0.00000 -42.11790 0.00000
			CHANNELS 3 Zrotation Xrotation Yrotation
			JOINT RightFoot
			{
				OFFSET 0.00000 -45.00020 -0.00001
				CHANNELS 3 Zrotation Xrotation Yrotation
				JOINT RightForeFoot
				{
					OFFSET 0.00000 -3.74820 0.00000
					CHANNELS 3 Zrotation Xrotation Yrotation
					JOINT RightToeBase
					{
						OFFSET 0.00000 0.06325 14.43120
						CHANNELS 3 Zrotation Xrotation Yrotation
						End site
						{
							OFFSET 0.00000 0.00000 0.00000
						}
					}
				}
			}
		}
	}
	JOINT LeftUpLeg
	{
		OFFSET 9.98441 0.00000 0.00000
		CHANNELS 3 Zrotation Xrotation Yrotation
		JOINT LeftLeg
		{
			OFFSET 0.00000 -42.11800 0.00000
			CHANNELS 3 Zrotation Xrotation Yrotation
			JOINT LeftFoot
			{
				OFFSET 0.00000 -45.00070 0.00000
				CHANNELS 3 Zrotation Xrotation Yrotation
				JOINT LeftForeFoot
				{
					OFFSET 0.00000 -3.74824 0.00000
					CHANNELS 3 Zrotation Xrotation Yrotation
					JOINT LeftToeBase
					{
						OFFSET 0.00000 0.06325 14.43110
						CHANNELS 3 Zrotation Xrotation Yrotation
						End site
						{
							OFFSET 0.00000 0.00000 0.00000
						}
					}
				}
			}
		}
	}
}
MOTION
Frames: 4
Frame Time: 0.050000
-0.03898306591969461 -0.010440890741164775 0.042177400086938654 -0.025954377338390684 -0.047935439798628826 0.015986534701802453 2.0980115408836473 1.2296263045806186 -1.8058408608338206 -0.9009054179020175 3.593441743265767 0.44184663715356287 -1.204738434412 -1.5256686393636967 0.20084000408102665 0.5107333074608903 -0.11270412372652512 -0.48578802355149986 1.880153727388887 13.718077724805529 -5.21502431343511 0.4304012908410047 0.5531424064578379 -12.42727587198126 2.1074928130033337 -14.948428843790122 -1.0118599266794812 -11.905390368382927 3.752619513776072 -17.27370756375331 72.26693531758079 -14.967374318238049 22.899682276309058 15.117445190187146 2.197069678793089 94.15317476241351 2.4129391105801603 -0.04923588412368076 -0.24398761613079953 4.562659149878572 -0.07706519017708263 -1.6309780155640863 0.03863998821356842 -0.009649125572649306 -56.231659272423876 0.021738214477160595 -0.01439909401852515 -56.237354391756526 -38.7356293370803 -0.016637065194414997 0.041576511016977395 0.029476954396299826 0.024333630991655864 0.04780138301352618 0.029217115708080835 -0.014752109177354238 -0.04752708708195004 -36.6778809960879 -0.011291906080331848 0.02858126788090529 -0.016008181268787655 -0.04585104410167044 -0.0027441618309685767 -0.010129620177363735 -0.024177771004599263 0.026235374958503126 -19.794161083790815 -0.001313508439987473 -0.04545633385787646 -0.03403696064878931 -0.04146351349572283 0.011680719920774992 -0.021902563326966135 0.01648718933586397 -0.02254855083118367 24.08960855134897 0.03962444590792119 0.02063587866549483 28.86899235993256 0.02159421946236563 -0.009844148183669051 28.82222668683415 -0.017606935872436513 -0.01603767570190668 7.62379725052614 1.8456176019922053 13.305783242168275 -71.28583408744275 21.95927830698802 -11.407421652699858 -16.445415379172996 3.093377912514706 -66.05419949106233 -11.95440083748994 -1.8184284050776562 0.6463562995564884 -0.4801577904708444 0.09200121546155725 -8.106108539828227 -0.0021897158302193157 -0.03570312147744464 44.540522067488105 -0.028651228199474122 0.004730598755472643 44.580349457750145 12.43470372427686 0.024495593454380155 0.041061790041936407 0.006287818595733514 -0.040458924836392345 0.0012573166073189244 0.04298691565393797 -0.02822567085466608 -0.01842608493418187 11.105709622999331 -0.04144467635006784 0.02966565490107163 -0.016072710301194393 0.04303362737574651 0.030477862668298793 -0.005019733220925226 0.03806440530213027 -0.029983699934959404 4.762925876277786 -0.01413197709884658 0.04063937338048565 -0.011368963326432644 0.043050584976344564 -0.03479895728312094 -0.02543505457251731 0.03649757610671024 -0.01168225301306073 -5.618550265145709 0.015990542280981436 -0.03195706241528907 -6.72408352918932 0.01417646291492526 0.011337735687665763 -6.717825773523412 0.007608951608445261 -0.012617122981610673 -0.04008673667709536 0.002688698712834242 -0.0018764361473978918 8.073333871774611 3.490186275017649 -19.23203102745577 -0.0005515878851518318 10.40876569271419 -0.011998499608490733 -5.632190804868928 -15.631671592596339 3.194901283255658 0.0022603824637447683 0.0016328149094090802 -0.003328676910110326 -0.008721797725141152 4.7204430591925375 -0.006876437232112712 12.482374114328069 -8.246631381333762 6.876307597013613 0.021094481193299795 46.33060908167287 0.0399239688246107 -4.359896314640272 -14.745236532308946 -3.8632206201407793 -0.036962760082692024 -0.003667819603139672 0.0315287101662199 0.007542432155850761 -10.706725834886822 -0.029255004055677047 
0.0022759804910364 -0.01798250182636064 0.042535737234716736 -0.002491189154722309 -0.006917685726774011 0.032376275412533295 2.358335985009428 1.1531455720698491 -1.8311991963811514 -0.9281888487170348 3.516814434078424 0.3706769538587365 -1.1663880204370465 -1.5459116981610743 0.5150519409290509 0.5058350902263682 -0.1473798851057667 -0.4584057686622709 1.9370938457168758 13.79409963828066 -5.340910672700779 0.33429536549040956 0.5663662651425538 -12.849078243349997 2.0974628622452407 -14.968872137211758 -1.0593238124976678 -12.267511370113374 3.84055075423585 -17.427056202048014 71.68719409892586 -14.847289938465705 23.719576423323595 12.56533450908425 1.8646871072447113 92.95181071837104 2.405320820222105 -0.07154678371249697 -0.1852849556212024 4.562001338716506 -0.15569396095839444 -1.5450044662335318 -0.03753965436703984 0.022076110796148508 -56.219071140268085 0.004710466159328961 -0.023615980264332394 -56.19393235298422 -38.7498817210563 -0.007945673321278728 0.03805024235257779 0.005700743828115571 -0.02210506176479785 0.028884371848103493 -0.045563223099726394 -0.043964704838985395 -0.019590886588749787 -36.682118896244944 0.0428525910156756 0.018055219381922456 -0.04159332733977024 -0.03221472834665951 0.006983311228449369 0.03285513293794773 0.026860866372988974 0.021191530551019026 -19.80042562567833 -0.004231757920581318 -0.005713351882327727 0.04378408984658923 -0.01730208071279483 -0.02377213576216137 0.02704757445671854 -0.02790757456250708 0.03115641703703406 24.06100296046336 -0.019329798204401026 -0.024024273421418635 28.89046894590261 -0.021812976875111845 0.0069405742721266594 28.867439450127236 -0.024777409527383 0.04396346345314592 7.562000897029437 1.92021373016008 13.510872019836352 -71.33529190301894 21.897700683441958 -10.512118766961512 -9.2596611796653 0.05153738141611842 -59.55671569882984 -12.366675507378416 -1.4377774568150024 0.7527683231726342 -0.45812266357855397 0.076921836204229 -8.150731706579059 0.00201173167756252 0.024554799621051494 44.54351107607794 0.011570868123748752 -0.03790995290635676 44.59445635623663 12.431977199899562 0.02590289181947574 0.026947917203584137 0.048614925058240936 0.015278840926468501 0.026206689854845866 -0.008224878556086907 0.036889881982106146 -0.03934317947801165 11.094548053473568 0.00518574162643359 -0.0172336758515704 -0.025491269897654763 -0.02005158389784519 -0.01835866404405828 -0.039921558455254205 -0.004341396892932186 -0.009422837641289443 4.745101095005653 -0.03495636135045067 -0.031143896144542545 -0.02064114333213893 -0.0129273802720561 0.03585266452883538 -0.01934315074728006 0.02248976279385761 -0.03878074702698717 -5.616580104882918 -0.02264129053369237 0.034955784855565844 -6.711405816274918 0.01852172331641976 0.04236801437160825 -6.7477520172756345 0.02214857007901796 0.0262374724707088 0.01448164911292934 0.013051096994035522 0.046525341117169855 8.059175724085375 3.4696373860394067 -19.256937094340554 0.010316436015630164 10.34696992298335 0.05064682760258139 -5.643157806763609 -15.629997273713872 3.2000093012671504 -0.0386575057020955 -0.031721034000633 -0.002977822769199581 0.011226942523263056 4.709043374683956 0.04206483379777058 12.492699807088714 -8.281655157726274 6.920574672189985 0.0428286212010184 46.40383814380907 0.03767600191903233 -4.346808008827216 -14.760696696532683 -3.7896401596996876 0.02505263521601535 -0.0034275179263720244 -0.01655644295838659 -0.025071582611682786 -10.706991510064263 0.020615018413203318 
-0.021077107900077316 0.024427656928995685 -0.02891842753711471 -0.020683977276852214 0.013086031784276454 0.02724546846730805 2.801547647791491 1.1974739246334067 -1.9086873732862986 -0.8918261602534038 3.5574716814731016 0.433591604496704 -1.0970861797673739 -1.47648236685828 0.8221885229899503 0.4107856818504579 -0.14541548910663787 -0.35470292071091436 1.964384450566152 13.768139517582286 -5.451036788782177 0.3018345314200365 0.5320661484984615 -13.293564380374997 2.1297723628922967 -15.026283998789003 -1.1069329902554124 -12.60512727394598 3.888602714910316 -17.660141177910837 71.517964610625 -14.87686182851392 24.403864754929938 10.156463493439338 1.4325685287085579 91.79478537310519 2.163257849694271 -0.05493622742780363 -0.13617245533154698 4.530942729265316 -0.1389108549301004 -1.5551216015655351 -0.016660766168171654 0.04987303221570305 -56.2209418999535 -0.04049398130087658 -0.049305747127402905 -56.19586321832929 -38.765882296810275 -0.03124615103249665 -0.021856209451930224 0.03983209376118082 0.016137551490077805 0.0009500780709625141 0.013075930233924647 0.04169661278958868 -0.015112683347942676 -36.706864023067446 -0.01095609777393494 -0.01881153327855261 0.03889164480739414 -0.024193688588859882 0.03733287679984742 0.0005131157825343551 0.028161107568526064 -0.014875098369263486 -19.776907099289986 -0.0019923182766331863 0.023816700460605567 -0.028992118045553697 -0.0035747031904484945 0.021242875829722438 -0.006979590526221 0.001382449100460367 0.0334893273481077 24.0793993029609 0.0034540015250719555 0.005855412536366133 28.882753311202237 -0.04604864645898003 -0.00644738118672192 28.822748479265066 -0.03563706675506901 0.03851882608018819 7.553553038733313 1.8585096140648991 13.747913588798816 -71.63294789818579 21.556721192126236 -9.514475379192524 -3.2811129242586925 -2.8958867589086097 -53.763430141336016 -12.910591070073844 -1.0680152300831556 0.8401267477151746 -0.45797286290268446 0.04128211093714604 -8.088753271142947 -0.023218611946579048 0.00885710555239651 44.52319236024243 6.993589097220507e-05 0.013638149835225785 44.58623664493832 12.424575961819965 -0.004656903279375244 -0.019781807324979823 -0.019709976025742166 0.027094722995112237 0.0012878802915900927 0.04427121916239167 0.030121641144057305 0.04731843834997474 11.080608377765591 0.007435210310685047 -0.04118669253194796 -0.020291099718862556 -0.014721403846156063 -0.04610528174409205 0.0014606041837030453 0.04103399803053619 -0.016745694332244345 4.779576351343378 0.024240990690083924 -0.029254591404088617 -0.026792044384033795 -0.04079063324169172 -0.008423172714041428 -0.01522644954615807 -0.04176874119713248 -0.028676626380628012 -5.64270907131762 0.012425782815058845 0.0064705388724408865 -6.734739445172801 0.023344611530531134 0.04427809473354975 -6.688552323146898 0.0011803920495500107 0.04507397325887128 0.021715012666975616 -0.014167738757913597 -0.049260515965526226 8.026662041947343 3.5394261442008466 -19.180627976032497 -0.012702365357418994 10.424374563525536 -0.013378167009288039 -5.655831207133866 -15.671402923229408 3.191490277119572 -0.01283891366139872 0.012340919595311297 -0.002948348507126285 0.011464257758324305 4.7382204749244625 0.026148280186996827 12.464268528739925 -8.215554457592745 6.85905849111475 0.027080135507579928 46.3769496042998 0.034077867795922694 -4.30155810437798 -14.750088639547437 -3.802193208017816 -0.02224874161585545 0.03664709900159361 0.016552172427063132 -0.018268168116671382 -10.746841048438466 0.014714846505643931 
-0.0442740188661023 0.044552138099565264 0.019604175592846957 0.049036209374943 0.039618221196938294 0.027675323685245386 3.335373129597563 1.3115522668112718 -2.004411148829611 -0.8822609365362878 3.594298301023573 0.46461174095047086 -1.1395329827959628 -1.4372431920687956 1.0731059134387526 0.3698948386342644 -0.2693655760323408 -0.297558871330168 2.0347983413476944 13.794248660132842 -5.600436094388289 0.3381138904853983 0.4752748245047745 -13.704572335168741 2.214544208050583 -15.14248767387505 -1.1491767759938503 -13.131385324832571 4.067930049044745 -17.898829577178628 71.69551217191477 -15.969443879215675 25.08528448818466 8.952115053879893 1.2632966388093234 90.87077684106778 1.9056781121612278 -0.10734936779801037 -0.13554193925429 4.494419703125186 -0.1505750991202001 -1.5664052625651224 -0.038819508922565166 0.03138162364728655 -56.25970146479305 0.002649093303544857 0.03609783815372812 -56.220716722638386 -38.72227477703419 -0.04478736082623627 -0.02223675240151827 0.0171584734345917 -0.002405028561589987 -0.009291439232570442 0.043746952315108445 -0.032450079139330346 0.028564590602219983 -36.724882011442844 0.0056371844900862805 0.02147683793400943 -0.022278212502078 -0.004775102957119673 -0.006486791343267401 -0.011372360606921185 -0.03458957049535243 -0.036045366518146105 -19.74614774124279 0.024435435841651792 -0.009751854841325727 0.018824084787149486 0.008857415923772514 0.03333551751702377 0.02094052558778059 0.03285845768001505 -0.025908672247006836 24.027881593608175 0.044438058701450865 0.02023846236749318 28.820979638460013 0.03628529486001504 0.0031847079538953943 28.83652386525593 -7.62502900733724e-05 0.014719988596076075 7.692251455650068 1.893071271823004 13.989885592644622 -72.07273305309894 20.717952599893245 -8.983896879537877 -0.8790446695000788 -3.679215053517933 -49.95580817578184 -13.593785384910007 -0.8309520649150519 0.7882142135084097 -0.4540540121789421 0.06738783450422531 -8.09823252912348 -0.019026289386853003 0.021184339752138657 44.53516333246726 0.008548759150349926 -0.018042131613492444 44.57370287692576 12.507085076855132 0.020429122961168007 -0.02577963511897683 -0.03026314226643302 0.015083001113274782 -0.03108946326650645 0.010056062160854348 -0.005586662640490353 0.01745512985238481 11.099759722765638 -0.0017190987504870977 0.008529708496867964 0.04723861790112839 0.024646274362277575 -0.0039731325742584115 -0.00838812163798106 -0.0356121620247083 0.013848713608503234 4.753365765199132 -0.04622492295092979 -0.0060445791864478 -0.020786876417377118 0.02577295913883923 0.005170900905554956 -0.049351809694390056 0.0363025661687457 0.028318385653880077 -5.558945454718202 0.015318910539013936 0.04688326346413434 -6.718136498550699 0.01584332008154901 0.015283378513173478 -6.704749035866946 -0.009981950044697435 0.03808656883982877 -0.0011331163817408206 -0.019486665751377974 0.028923898139448963 8.041041806299342 3.498054908466549 -19.25454048380547 -0.017669817732325857 10.384366881662423 0.055674269521443526 -5.586813355293121 -15.669366044236357 3.1738759088491135 0.039401634896578816 -0.004547304301674527 0.00044930320256422713 -0.015503661239991974 4.697430022614901 0.010119194809556193 12.425653173157636 -8.219324767494701 6.887339205941277 -0.010681921894172256 46.377041420157546 -0.028433233595513724 -4.3626310328707065 -14.76145470330552 -3.8654544304906806 -0.02035596645238277 -0.018967937143502932 -0.034772518582970195 -0.03924618347497909 -10.743829000961387 0.014638130829178543 
